<?xml version="1.0" encoding="UTF-8" standalone="no"?>
<svg
   xmlns:dc="http://purl.org/dc/elements/1.1/"
   xmlns:cc="http://creativecommons.org/ns#"
   xmlns:rdf="http://www.w3.org/1999/02/22-rdf-syntax-ns#"
   xmlns:svg="http://www.w3.org/2000/svg"
   xmlns="http://www.w3.org/2000/svg"
   viewBox="0 0 300 300"
   height="300"
   width="300"
   id="svg398"
   version="1.1">
  <metadata
     id="metadata404">
    <rdf:RDF>
      <cc:Work
         rdf:about="">
        <dc:format>image/svg+xml</dc:format>
        <dc:type
           rdf:resource="http://purl.org/dc/dcmitype/StillImage" />
        <dc:title></dc:title>
      </cc:Work>
    </rdf:RDF>
  </metadata>
  <defs
     id="defs402" />
  <path
     id="path408"
     d="m 125.08511,262.56593 c -8.45956,-11.40397 -10.07882,-17.70802 -10.65605,-41.48613 -0.2928,-12.06134 -0.14675,-18.17993 0.52015,-21.79177 0.50998,-2.76201 1.00613,-9.43468 1.10254,-14.82814 0.15335,-8.57799 0.40208,-10.34566 1.98579,-14.11232 1.40216,-3.3349 1.66925,-4.79844 1.18428,-6.48942 -0.3444,-1.20087 -0.55006,-2.25471 -0.45701,-2.34186 0.0931,-0.0872 3.11106,-1.35235 6.7067,-2.81155 6.20626,-2.51863 6.83199,-2.63032 12.34867,-2.20414 23.19815,1.79214 38.58207,5.37953 40.91034,9.53992 0.44333,0.79218 1.21493,1.06185 2.25785,0.78913 5.35174,-1.39952 17.48557,8.24002 17.48557,13.89114 0,1.93093 -3.32974,3.03938 -10.61082,3.53229 -6.60305,0.447 -14.87718,-1.02197 -19.39491,-3.44333 -1.46899,-0.78733 -6.00713,-1.93261 -10.08477,-2.54506 -4.07763,-0.61245 -8.12905,-1.29305 -9.00315,-1.51243 -1.35401,-0.33983 -1.78195,0.1056 -2.89075,3.00895 -1.20082,3.14434 -1.23574,4.45468 -0.45153,16.94672 0.46746,7.44639 1.05491,18.46069 1.30545,24.47624 0.42517,10.20863 0.35298,11.13834 -1.08351,13.95411 -1.93119,3.78543 -1.92973,3.80103 0.35569,3.80103 1.59762,0 1.83282,0.25628 1.49991,1.63438 -0.21714,0.89891 -1.1457,6.83731 -2.06345,13.19645 l -1.66865,11.56207 -4.36042,1.97935 c -3.81875,1.73346 -4.53715,1.85556 -5.78305,0.98289 -1.22044,-0.85482 -1.60215,-0.83399 -2.68569,0.1466 -1.17443,1.06285 -1.62833,0.65063 -6.46918,-5.87512 z m 146.75444,-107.0162 c 0,-0.87867 -10.33773,-7.49289 -18.523,-11.85127 -3.99516,-2.12728 -19.41259,-12.46262 -34.26097,-22.9674 -21.10162,-14.92877 -27.53708,-19.85093 -29.46997,-22.540117 -3.11079,-4.327972 -34.58462,-34.897267 -37.94507,-36.854546 -1.98247,-1.154678 -2.53842,-1.97447 -2.70938,-3.995157 -0.29614,-3.500377 -1.91115,-3.284403 -8.11966,1.085834 -4.39085,3.090767 -5.25758,4.100357 -7.12453,8.298833 -2.03519,4.576811 -2.48927,5.0412 -10.68319,10.925645 -5.42708,3.897443 -9.46403,7.407399 -11.03528,9.594697 -1.47116,2.047969 -3.23343,3.61999 -4.33823,3.869869 -1.02334,0.231451 -8.210589,6.164465 -15.971669,13.184472 -12.12017,10.96286 -15.03468,13.22464 -20.65755,16.03111 -5.0552,2.52315 -7.95299,4.62911 -12.72082,9.24487 -6.49778,6.29053 -9.73247,8.41281 -25.06053,16.44224 -8.74056,4.57863 -21.02819,9.38539 -23.9921397,9.38539 -1.04547,0 -1.1949,-0.48294 -0.87876,-2.83993 0.25923,-1.93276 2.0880597,-5.35019 5.7251797,-10.69838 l 5.34427,-7.85845 28.19568,-20.12959 C 74.399451,94.755017 76.978691,92.706285 99.184911,72.914259 117.23296,56.828339 123.69936,50.5962 127.55869,45.568423 c 6.03702,-7.864824 9.34296,-10.40785 14.85456,-11.426598 2.26801,-0.419211 5.68952,-1.272751 7.60338,-1.896758 l 3.47973,-1.134556 3.42099,2.534256 c 4.60119,3.408541 12.28347,11.431189 20.42593,21.330894 3.69458,4.49191 12.90171,14.019692 20.4603,21.172849 11.04653,10.45401 17.41299,15.705848 32.44875,26.76775 22.5327,16.57743 25.25191,18.42123 37.48468,25.41707 11.64034,6.65703 11.57047,6.609 16.18107,11.12286 4.12266,4.03616 9.07262,12.40853 7.6221,12.89203 -0.61059,0.20353 -0.64927,0.56376 -0.12797,1.19188 0.58174,0.70095 -1.22031,1.0891 -8.1416,1.75366 -10.44743,1.00313 -11.43106,1.02515 -11.43106,0.25597 z m 18.15981,-2.59896 c 0,-0.15084 -0.49032,-0.68118 -1.08959,-1.17853 -0.89238,-0.74061 -1.08959,-0.69097 -1.08959,0.27426 0,0.64818 0.49032,1.17852 1.08959,1.17852 0.59927,0 1.08959,-0.12341 1.08959,-0.27425 z M 136.73059,128.5202 c -10.79174,-0.99422 -21.89033,-3.00031 -24.92299,-4.50486 -1.52243,-0.7553 -4.90532,-2.03341 -7.51755,-2.84025 -3.27778,-1.01241 -5.740089,-2.38006 -7.946249,-4.41364 -1.75821,-1.62065 -3.19674,-3.19998 -3.19674,-3.50961 0,-0.30964 4.65799,-2.09378 10.351089,-3.96476 10.78069,-3.54298 13.58299,-3.91997 25.24213,-3.39586 2.99637,0.1347 6.38458,0.008 7.52936,-0.2823 1.29219,-0.32731 4.11856,-0.0199 7.45395,0.81065 5.16768,1.28684 5.51763,1.28863 9.17767,0.047 2.98346,-1.01209 4.24668,-1.12239 5.84999,-0.51075 1.12467,0.42905 4.2671,0.78008 6.98318,0.78008 2.71607,0 6.69903,0.36598 8.85101,0.81328 4.28167,0.88996 5.03976,0.91328 8.27106,0.25435 1.35772,-0.27687 4.45379,0.21399 8.21333,1.30216 5.6546,1.63667 6.19159,1.96796 8.53694,5.26674 l 2.50277,3.52021 -7.33216,3.9436 c -5.33881,2.87148 -7.5497,3.72606 -8.13233,3.14343 -0.58263,-0.58263 -1.25924,-0.3689 -2.48878,0.7862 -1.51262,1.42103 -2.80395,1.6426 -12.39008,2.12589 -22.63335,1.14109 -28.3567,1.24375 -35.0356,0.62844 z"
     style="fill:#000000;stroke-width:0.72639227" />
</svg>
